<?xml version="1.0" ?><!DOCTYPE svg  PUBLIC '-//W3C//DTD SVG 1.1//EN'  'http://www.w3.org/Graphics/SVG/1.1/DTD/svg11.dtd'><svg enable-background="new 0 0 128 128" id="Слой_1" version="1.1" viewBox="0 0 128 128" xml:space="preserve" xmlns="http://www.w3.org/2000/svg" xmlns:xlink="http://www.w3.org/1999/xlink"><g><g><path d="M64,119.9L41,55.5l0.5-0.8c4.8-8,13.2-12.8,22.6-12.8s17.8,4.8,22.6,12.8l0.5,0.8L64,119.9z M45.4,55.9    L64,108.1l18.6-52.2c-4.1-6.3-11-10.1-18.6-10.1S49.5,49.6,45.4,55.9z" fill="#3EBBC4"/></g><g><rect fill="#3EBBC4" height="4" width="41.7" x="43.2" y="53.7"/></g><g><rect fill="#3EBBC4" height="39.8" width="4" x="62" y="4"/></g><path d="M46.8,37.8L65.7,5l-3.5-2l-19,32.8c-7.5-3.6-16.5-3.5-24.2,0.7L18.3,37L6,104.4l41.9-35.6   l-2.6-3L12,94.1l9.6-52.6l22.6,13l2-3.5L24.5,38.5c10.4-3.8,21.2,1.1,26.2,8.9l3.4-2.2C52.1,42.2,49.6,39.7,46.8,37.8z" fill="#3EBBC4" opacity="0.1"/><path d="M82.6,65.7l-2.6,3l42,35.6L109.7,37l-0.8-0.5c-7.7-4.3-16.7-4.3-24.2-0.8L65.7,3l-3.5,2   l18.9,32.8c-2.8,1.9-5.3,4.4-7.3,7.5l3.4,2.2c5-7.8,15.8-12.8,26.3-8.9L81.8,51.1l2,3.5l22.6-13l9.6,52.6L82.6,65.7z" fill="#3EBBC4" opacity="0.3"/><g opacity="0.2"><path d="M55.3,115.6c-1.4-0.1-2.7-0.3-4.1-0.5l0.6-4c1.3,0.2,2.6,0.4,3.9,0.5L55.3,115.6z M43.2,113.4    c-1.3-0.3-2.7-0.7-3.9-1.1l1.2-3.8c1.2,0.4,2.5,0.7,3.8,1L43.2,113.4z M31.6,109.5c-1.2-0.5-2.5-1.1-3.7-1.7l1.7-3.6    c1.2,0.6,2.4,1.1,3.6,1.6L31.6,109.5z M20.6,104c-1.2-0.7-2.3-1.4-3.5-2.2l2.2-3.3c1.1,0.7,2.2,1.4,3.3,2.1L20.6,104z" fill="#3EBBC4"/></g><g opacity="0.25"><path d="M77.9,114.9l-0.7-3.9c1.3-0.2,2.6-0.5,3.8-0.7l0.8,3.9C80.6,114.4,79.2,114.6,77.9,114.9z M89.8,112    l-1.2-3.8c1.2-0.4,2.5-0.8,3.7-1.3l1.4,3.7C92.4,111.1,91.1,111.6,89.8,112z M101.2,107.4l-1.8-3.6c1.2-0.6,2.3-1.2,3.5-1.8    l1.9,3.5C103.6,106.2,102.4,106.8,101.2,107.4z M111.8,101.2l-2.2-3.3l3.3-2.2l2.2,3.3L111.8,101.2z" fill="#3EBBC4"/></g></g></svg>