<?xml version="1.0" ?><!DOCTYPE svg  PUBLIC '-//W3C//DTD SVG 1.1//EN'  'http://www.w3.org/Graphics/SVG/1.1/DTD/svg11.dtd'><svg enable-background="new 0 0 128 128" id="Слой_1" version="1.1" viewBox="0 0 128 128" xml:space="preserve" xmlns="http://www.w3.org/2000/svg" xmlns:xlink="http://www.w3.org/1999/xlink"><g><g><path d="M42,126H3v-16h39V126z M7,122h31v-8H7V122z" fill="#3EBBC4"/></g><g><path d="M83,126H44v-16h39V126z M48,122h31v-8H48V122z" fill="#3EBBC4"/></g><g><path d="M124,126H85v-16h39V126z M89,122h31v-8H89V122z" fill="#3EBBC4"/></g><g><path d="M62,108H23V92h39V108z M27,104h31v-8H27V104z" fill="#3EBBC4"/></g><g><path d="M103,108H64V92h39V108z M68,104h31v-8H68V104z" fill="#3EBBC4"/></g><g><polygon fill="#3EBBC4" points="124,108 105,108 105,92 124,92 124,96 109,96 109,104 124,104   "/></g><g><polygon fill="#3EBBC4" points="21,108 3,108 3,104 17,104 17,96 3,96 3,92 21,92   "/></g><g><path d="M42,90H3V74h39V90z M7,86h31v-8H7V86z" fill="#3EBBC4"/></g><g><path d="M83,90H44V74h39V90z M48,86h31v-8H48V86z" fill="#3EBBC4"/></g><g><path d="M124,90H85V74h39V90z M89,86h31v-8H89V86z" fill="#3EBBC4"/></g><g><path d="M62,72H23V56h39V72z M27,68h31v-8H27V68z" fill="#3EBBC4"/></g><g><path d="M103,72H64V56h39V72z M68,68h31v-8H68V68z" fill="#3EBBC4"/></g><g><polygon fill="#3EBBC4" points="124,72 105,72 105,56 124,56 124,60 109,60 109,68 124,68   "/></g><g><polygon fill="#3EBBC4" points="21,72 3,72 3,68 17,68 17,60 3,60 3,56 21,56   "/></g><g><path d="M42,54H3V38h39V54z M7,50h31v-8H7V50z" fill="#3EBBC4"/></g><g><path d="M83,54H44V38h39V54z M48,50h31v-8H48V50z" fill="#3EBBC4"/></g><g><path d="M124,54H85V38h39V54z M89,50h31v-8H89V50z" fill="#3EBBC4"/></g><g><path d="M62,36H23V20h39V36z M27,32h31v-8H27V32z" fill="#3EBBC4"/></g><g><path d="M103,36H64V20h39V36z M68,32h31v-8H68V32z" fill="#3EBBC4"/></g><g><polygon fill="#3EBBC4" points="124,36 105,36 105,20 124,20 124,24 109,24 109,32 124,32   "/></g><g><polygon fill="#3EBBC4" points="21,36 3,36 3,32 17,32 17,24 3,24 3,20 21,20   "/></g><g><path d="M42,18H3V2h39V18z M7,14h31V6H7V14z" fill="#3EBBC4"/></g><g><path d="M83,18H44V2h39V18z M48,14h31V6H48V14z" fill="#3EBBC4"/></g><g><path d="M124,18H85V2h39V18z M89,14h31V6H89V14z" fill="#3EBBC4"/></g></g></svg>